<?xml version="1.0" standalone="no"?>
<!DOCTYPE svg PUBLIC "-//W3C//DTD SVG 20010904//EN"
 "http://www.w3.org/TR/2001/REC-SVG-20010904/DTD/svg10.dtd">
<svg version="1.0" xmlns="http://www.w3.org/2000/svg"
 width="550.000000pt" height="550.000000pt" viewBox="0 0 550.000000 550.000000"
 preserveAspectRatio="xMidYMid meet">
<metadata>
Created by potrace 1.14, written by Peter Selinger 2001-2017
</metadata>
<g transform="translate(0.000000,550.000000) scale(0.100000,-0.100000)"
fill="#000000" stroke="none">
<path d="M269 4980 c-40 -21 -79 -87 -79 -134 0 -58 56 -129 113 -140 16 -3
206 -6 423 -6 365 0 393 -1 397 -17 7 -25 18 -74 23 -101 3 -13 16 -74 30
-135 13 -62 27 -123 30 -136 2 -12 11 -51 19 -85 8 -33 17 -76 20 -95 3 -19 8
-37 10 -41 2 -4 6 -20 9 -36 3 -16 22 -101 42 -189 20 -88 38 -169 40 -180 7
-34 12 -57 33 -150 11 -49 23 -105 26 -124 3 -19 8 -37 10 -41 2 -4 7 -22 10
-41 3 -19 22 -104 41 -189 20 -85 38 -166 40 -180 3 -14 13 -61 23 -105 11
-44 22 -93 25 -110 17 -82 55 -250 71 -315 8 -30 16 -74 20 -96 l6 -42 -38 -7
c-56 -10 -152 -60 -199 -102 -184 -169 -198 -450 -32 -634 65 -73 175 -131
268 -143 19 -3 127 -5 240 -6 187 -2 200 -3 150 -14 -344 -77 -464 -513 -209
-758 91 -88 203 -130 328 -123 154 8 267 71 352 197 126 185 91 444 -81 588
-54 46 -138 87 -202 99 -25 5 387 9 972 9 570 0 996 -4 973 -9 -151 -29 -289
-153 -338 -300 -21 -61 -27 -170 -14 -230 35 -158 159 -293 314 -341 17 -5 64
-11 106 -13 128 -7 242 37 335 129 90 90 132 196 130 323 -5 208 -136 374
-339 427 -51 14 -48 14 99 14 171 1 203 10 243 68 18 25 24 49 24 85 0 54 -17
86 -67 123 -27 21 -32 21 -1516 26 -1484 5 -1489 5 -1516 26 -40 30 -63 64
-67 104 -8 72 37 142 102 160 23 6 557 10 1477 10 793 0 1450 3 1460 7 37 13
74 45 88 76 9 18 151 507 316 1087 322 1126 318 1108 273 1168 -10 14 -34 33
-53 43 -33 18 -103 19 -1887 19 -1019 0 -1853 2 -1853 6 0 37 -105 480 -122
513 -42 82 -32 81 -583 80 -454 0 -482 -1 -516 -19z"/>
</g>
</svg>
